<svg id="Light" xmlns="http://www.w3.org/2000/svg" width="4699.998" height="3002.75" viewBox="0 0 4699.998 3002.75">
  <defs>
    <style>
      .cls-1 {
        fill: #4d4a48;
      }

      .cls-1, .cls-2, .cls-3, .cls-4 {
        fill-rule: evenodd;
      }

      .cls-2 {
        fill: #918d8a;
      }

      .cls-3 {
        fill: #c7c4bf;
      }

      .cls-4 {
        fill: #faf9f6;
      }
    </style>
  </defs>
  <path id="N4" class="cls-1" d="M1433,3766l-255-494,550.82-1336.33,238.73-298.41L1744,2972Zm415.19-935.09,238.73-1402.54,328.25-447.611-59.68,626.661,119.36,268.57-104.44,268.57ZM2547,3891l688.8-687.08L3657,3094Z" transform="translate(-132.312 -891.25)"/>
  <path id="N3" class="cls-2" d="M132.327,3860.42L744.069,2741.38l373.011-402.85L1047,2723,814,3056,595,3564Zm1342.853,29.84,343.17-865.39,566.98-746.02,402.85,552.06L2355.49,3890.26H1475.18ZM3758.02,2159.48L3394,2299l60,205-197,599,541-127-69.82-324.14L3794,2456Z" transform="translate(-132.312 -891.25)"/>
  <path id="N2" class="cls-3" d="M704,3493l159.433-348.76L982.8,3308.36ZM266.612,3890.26L1103,3354l282.65,536.26H266.612ZM2444,3894l396-986,238,320Zm254.66-3.74,1148.88-805.7L4758,3891Z" transform="translate(-132.312 -891.25)"/>
  <path id="N1" class="cls-4" d="M1220,2234l-98,527L917,3055l152,211,391.26-927.47Zm2627.54-59.6L3869,2462l-50,189,89,359,924.3,835.5L4220.56,2547.42ZM2504.69,891.235l-59.68,686.345,119.37,298.41L2446,2199l700.28,960.16,208.88-656.51-298.41-895.23Z" transform="translate(-132.312 -891.25)"/>
</svg>
